<svg width="453.8" height="118.1" viewBox="0 0 453.8 118.1" xmlns="http://www.w3.org/2000/svg" xmlns:xlink="http://www.w3.org/1999/xlink" overflow="visible"><defs></defs><g><g><path d="M195.9 78.7 191 93.8C190.8 94.3 190.5 94.6 189.9 94.6L178.1 94.6C177.4 94.6 177.2 94.2 177.3 93.6L197.7 34.8C198.1 33.7 198.5 32.5 198.7 28.6 198.7 28.2 199 27.9 199.3 27.9L215.6 27.9C216.1 27.9 216.3 28 216.4 28.5L239.5 93.7C239.7 94.2 239.6 94.6 239 94.6L225.7 94.6C225.1 94.6 224.8 94.4 224.6 93.9L219.4 78.7 195.9 78.7ZM215.7 66C213.7 59.3 209.6 46.9 207.6 39.7L207.5 39.7C205.9 46.5 202.2 57.7 199.5 66L215.7 66Z" fill="#EB1000"/><path d="M241.1 69.8C241.1 55.2 252 43 270.7 43 271.5 43 272.5 43.1 274.1 43.2L274.1 23.1C274.1 22.6 274.4 22.4 274.8 22.4L287.6 22.4C288.1 22.4 288.2 22.6 288.2 23L288.2 83.3C288.2 85.6 288.3 88.7 288.6 90.7 288.6 91.2 288.5 91.4 287.9 91.6 280.9 94.6 274.1 95.7 267.8 95.7 252.8 95.7 241.1 87.1 241.1 69.8ZM274.1 55.3C273.1 54.9 271.8 54.8 270.3 54.8 262.4 54.8 255.7 59.6 255.7 69.1 255.7 79.2 261.5 83.6 269.3 83.6 271 83.6 272.7 83.5 274.1 83L274.1 55.3Z" fill="#EB1000"/><path d="M346.6 69.1C346.6 85.1 336.2 95.7 321.5 95.7 304.1 95.7 296.3 82.5 296.3 69.4 296.3 54.9 306 43 321.7 43 338.2 43 346.6 55.3 346.6 69.1ZM310.7 69.2C310.7 78.2 314.9 83.9 321.7 83.9 327.6 83.9 332.1 78.8 332.1 69.4 332.1 61.4 328.8 54.8 321.1 54.8 315.2 54.8 310.7 60.1 310.7 69.2Z" fill="#EB1000"/><path d="M368.1 22.4C368.9 22.4 369.1 22.5 369.1 23.2L369.1 44.1C371.8 43.4 374.6 43 377.7 43 392.7 43 402.2 53.6 402.2 67.3 402.2 86.4 387.1 95.7 371.6 95.7 366.2 95.7 360.8 95 355.6 93.4 355.3 93.3 355 92.8 355 92.4L355 23.1C355 22.6 355.2 22.4 355.7 22.4L368.1 22.4ZM375.1 55C371.8 55 370.4 55.5 369.1 55.8L369.1 83.4C370.3 83.7 371.6 83.8 372.9 83.8 380.6 83.8 387.7 79.1 387.7 68.5 387.6 59.3 382.2 55 375.1 55Z" fill="#EB1000"/><path d="M422 73C422.5 78.8 426.6 83.6 436.6 83.6 441.2 83.6 445.3 82.9 449.1 81.3 449.4 81.1 449.7 81.2 449.7 81.8L449.7 91.5C449.7 92.2 449.5 92.5 449 92.7 444.9 94.6 440.4 95.7 433.4 95.7 414.2 95.7 407.5 82.5 407.5 69.9 407.5 55.8 416.2 43 432.2 43 447.6 43 453.7 54.9 453.7 65 453.7 68.2 453.5 70.7 453.2 71.8 453.1 72.3 452.9 72.5 452.4 72.6 451.1 72.8 447.2 73 441.9 73L422 73ZM435.3 63.2C438.6 63.2 440 63.1 440.4 63 440.4 62.8 440.4 62.4 440.4 62.3 440.4 59.9 438.5 54.2 431.7 54.2 425.3 54.2 422.5 59 421.9 63.2L435.3 63.2Z" fill="#EB1000"/></g><g><g><path d="M84.1 0 133.5 0 133.5 118.1Z" fill="#EB1000"/></g><g><path d="M49.4 0 0 0 0 118.1Z" fill="#EB1000"/></g><g><path d="M66.7 43.5 98.2 118.1 77.6 118.1 68.2 94.4 45.2 94.4Z" fill="#EB1000"/></g></g></g></svg>