<svg viewBox="0 0 133.7 184" xmlns="http://www.w3.org/2000/svg" xmlns:xlink="http://www.w3.org/1999/xlink" overflow="hidden"><g id="Layer_1"><g><path d="M84.3 0 133.7 0 133.7 118.2Z" fill="#EB1000"/><path d="M49.5 0 0.1 0 0.1 118.2Z" fill="#EB1000"/><path d="M66.9 43.6 98.4 118.2 77.8 118.2 68.3 94.5 45.3 94.5Z" fill="#EB1000"/><g><path d="M9.4 172.7 7.3 183C7.2 183.4 7.1 183.5 6.8 183.5L0.5 183.5C0.1 183.5 0 183.4 0 182.8L8.6 145.6C8.9 144.5 8.9 143.9 8.9 142 8.9 141.7 9 141.6 9.3 141.6L18.3 141.6C18.6 141.6 18.8 141.7 18.8 142.1L28.9 183C29 183.4 28.8 183.5 28.5 183.5L21.5 183.5C21.2 183.5 21 183.3 21 183L18.7 172.7 9.4 172.7ZM17.3 165.6C16.4 160.8 14.7 153.5 14 148.9L13.9 148.9C13.2 153.4 12 159.8 10.9 165.6L17.3 165.6Z" fill="#EB1000"/><path d="M30 167.4C30 157.9 35.6 150.5 44.5 150.5L45.5 150.5 45.5 139.3C45.5 139.1 45.6 139 45.9 139L52.9 139C53.2 139 53.2 139.1 53.2 139.3L53.2 176.8C53.2 177.8 53.1 179.1 53.4 181.2 53.4 181.4 53.4 181.5 53.1 181.7 50.4 183.1 47 184 43.7 184 35.5 184 30 178.6 30 167.4ZM45.5 157.5C45.2 157.4 44.8 157.3 44.1 157.3 40.5 157.3 37.7 160.6 37.7 167.1 37.7 174 40.4 176.9 44 176.9 44.5 176.9 45.1 176.8 45.5 176.7L45.5 157.5Z" fill="#EB1000"/><path d="M81.1 167.2C81.1 177.5 76.8 184 69.3 184 60.8 184 57.5 176.6 57.5 167.1 57.5 157.5 61.8 150.6 69.5 150.6 76.7 150.6 81.1 156.7 81.1 167.2ZM65 167.2C65 173.3 66.3 177.2 69.2 177.2 72 177.2 73.4 173.8 73.4 167.2 73.4 161.1 72.4 157.3 69.3 157.3 66.6 157.3 65 160.4 65 167.2Z" fill="#EB1000"/><path d="M92.5 139C92.8 139 92.8 139.1 92.8 139.4L92.8 151C93.7 150.8 94.8 150.6 96.3 150.6 103.1 150.6 108.2 155.8 108.2 165.9 108.2 177.7 101.5 184 93.1 184 90.7 184 88.2 183.7 85.6 182.8 85.4 182.7 85.2 182.5 85.2 182.3L85.2 139.5C85.2 139.2 85.3 139.1 85.6 139.1L92.5 139.1ZM95.2 157.5C94.7 157.5 93.6 157.6 92.9 157.8L92.9 177C93.4 177.1 93.9 177.1 94.3 177.1 97.2 177.1 100.7 174.1 100.7 166 100.7 159.7 98.2 157.5 95.2 157.5Z" fill="#EB1000"/><path d="M118.8 169C118.8 174 120.7 177.1 126 177.1 127.8 177.1 129.2 176.8 130.9 176.2 131.2 176.1 131.4 176.1 131.4 176.5L131.4 181.9C131.4 182.4 131.3 182.6 130.9 182.7 129.1 183.7 126.6 183.9 124.5 183.9 114.9 183.9 111.2 176.9 111.2 167.7 111.2 157.9 115.5 150.5 123.1 150.5 131.1 150.5 133.4 157.6 133.4 163.4 133.4 165.5 133.2 167.5 133.1 168.3 133 168.6 132.8 168.8 132.5 168.8 131.8 168.9 129.8 169 126.3 169L118.8 169ZM124.3 162.9C125.5 162.9 126.1 162.9 126.3 162.8 126.4 162.5 126.4 162.3 126.4 162.1 126.4 159.6 125.6 157 123 157 120.4 157 119.4 159.7 119 162.9L124.3 162.9Z" fill="#EB1000"/></g></g></g><g id="_x3C_Layer_x3E__1_"></g></svg>