<svg id="Layer_1" data-name="Layer 1" xmlns="http://www.w3.org/2000/svg" viewBox="0 0 133.728 183.9704"><defs><style>.cls-1{fill:#fff;}</style></defs><polygon class="cls-1" points="84.348 0 133.728 0 133.728 118.23 84.348 0"/><polygon class="cls-1" points="49.558 0 0.138 0 0.138 118.23 49.558 0"/><polygon class="cls-1" points="66.958 43.57 98.418 118.23 77.798 118.23 68.388 94.45 45.358 94.45 66.958 43.57"/><path class="cls-1" d="M9.44,172.69,7.27,182.97c-.07.4-.2.46-.53.46H.44c-.4,0-.53-.13-.46-.66l8.63-37.23a13.6106,13.6106,0,0,0,.26-3.62.36.36,0,0,1,.315-.4.3661.3661,0,0,1,.085,0h9c.33,0,.46.14.53.47L28.88,182.9c.07.4-.07.53-.4.53h-7a.47.47,0,0,1-.5262-.4061.4634.4634,0,0,1-.0038-.0539l-2.3-10.28Zm7.84-7c-.92-4.81-2.63-12.06-3.29-16.74h-.07c-.66,4.55-1.91,10.94-3,16.74Z" transform="translate(0.038)"/><path class="cls-1" d="M29.98,167.42c0-9.5,5.6-16.86,14.51-16.86h1V139.34c0-.2.13-.33.39-.33h7c.26,0,.32.13.32.33v37.49a29.3256,29.3256,0,0,0,.2,4.36.4.4,0,0,1-.26.45,21.45,21.45,0,0,1-9.44,2.28C35.51,183.95,29.98,178.62,29.98,167.42Zm15.55-9.89a3.4606,3.4606,0,0,0-1.43-.2c-3.64,0-6.38,3.32-6.38,9.83,0,6.9,2.74,9.76,6.32,9.76a5.5312,5.5312,0,0,0,1.49-.19Z" transform="translate(0.038)"/><path class="cls-1" d="M81.07,167.16c0,10.28-4.3,16.79-11.85,16.79-8.46,0-11.84-7.42-11.84-16.86,0-9.63,4.3-16.53,12-16.53C76.71,150.56,81.07,156.68,81.07,167.16Zm-16.08,0c0,6.05,1.31,10,4.23,10s4.17-3.38,4.17-10c0-6.12-1-9.9-4.1-9.9C66.62,157.34,64.99,160.39,64.99,167.16Z" transform="translate(0.038)"/><path class="cls-1" d="M92.52,139.04c.26,0,.33.13.33.39v11.52a16.2647,16.2647,0,0,1,3.51-.39c6.77,0,11.91,5.21,11.91,15.3,0,11.78-6.7,18.09-15.09,18.09a24.3912,24.3912,0,0,1-7.55-1.17.56.56,0,0,1-.4-.52V139.43a.35.35,0,0,1,.4-.39Zm2.67,18.42a8.11,8.11,0,0,0-2.34.33v19.2a5.38,5.38,0,0,0,1.37.13c2.93,0,6.37-3,6.44-11.07C100.72,159.74,98.19,157.46,95.19,157.46Z" transform="translate(0.038)"/><path class="cls-1" d="M118.82,169.05c0,5,1.88,8.07,7.16,8.07a13.27,13.27,0,0,0,4.94-.91c.33-.13.52-.13.52.32v5.4c0,.46-.13.72-.45.85a14.189,14.189,0,0,1-6.45,1.17c-9.56,0-13.27-7-13.27-16.2,0-9.77,4.29-17.19,11.91-17.19,8,0,10.35,7.1,10.35,12.89a35.2946,35.2946,0,0,1-.33,4.88.61.61,0,0,1-.58.52c-.66.07-2.67.2-6.19.2Zm5.53-6.12a9.908,9.908,0,0,0,2-.07,2.6585,2.6585,0,0,0,.07-.71c0-2.47-.78-5.08-3.45-5.08s-3.65,2.67-4,5.86Z" transform="translate(0.038)"/></svg>